# xmcd CD database file
#
# Track frame offsets:
#	183
#	8568
#	21368
#	33048
#	47448
#	65318
#	79578
#	91393
#	104033
#	128925
#	145650
#	160448
#	182895
#	203605
#	228368
#	246090
#	262693
#	287363
#
# Disc length: 4073 seconds
#
# Revision: 1
# Processed by: cddbd v1.5.1PL0 Copyright (c) Steve Scherf et al.
# Submitted via: CDex 1.51
#
DISCID=e10fe712
DTITLE=Les Génies du Jazz - I 08 - Earl Hines (Father)
DYEAR=1900
DGENRE=Jazz
TTITLE0=Song of the Islands
TTITLE1=Honeysuckle Rose
TTITLE2=Nice work if you can get it
TTITLE3=If I had you
TTITLE4=Humoresque
TTITLE5=The web
TTITLE6=Hollywood Hop
TTITLE7=A jumpin' Something
TTITLE8=After you've gone
TTITLE9=I' Ain't Got Nobody
TTITLE10=Mahogany Hall Stomp
TTITLE11=It's right there for you
TTITLE12=Savoy Blues
TTITLE13=Apex Blues
TTITLE14=I can't give you anything but love
TTITLE15=Everybody loves my baby
TTITLE16=Black in blue
TTITLE17=Night Ladies of the Street
EXTD=
EXTT0=
EXTT1=
EXTT2=
EXTT3=
EXTT4=
EXTT5=
EXTT6=
EXTT7=
EXTT8=
EXTT9=
EXTT10=
EXTT11=
EXTT12=
EXTT13=
EXTT14=
EXTT15=
EXTT16=
EXTT17=
PLAYORDER=
